<?xml version="1.0" encoding="UTF-8"?>
<svg id="_Слой_2" data-name="Слой 2" xmlns="http://www.w3.org/2000/svg" viewBox="0 0 57.57 159.31">
  <g id="_Слой_1-2" data-name="Слой 1">
    <g id="_1743069193776" data-name=" 1743069193776">
      <polygon points="17.87 88.01 57.48 26.32 57.57 26.46 57.57 2.74 57.37 2.44 2.44 88.01 17.87 88.01" style="fill: #7db330;"/>
      <path d="M17.14,86.67L57.47,23.88l.1.15v4.86l-.08-.12-38.89,60.57H0C19.12,59.56,38.24,29.78,57.36,0l.2.31v4.86l-.18-.28L4.87,86.67h12.27Z" style="fill: #7db330;"/>
      <polygon points="17.87 157.98 57.48 96.29 57.57 96.43 57.57 72.71 57.37 72.42 2.44 157.98 17.87 157.98" style="fill: #7db330;"/>
      <path d="M17.14,156.65l40.32-62.8.1.15v4.86l-.08-.12-38.89,60.57H0c19.12-29.78,38.24-59.56,57.36-89.34l.2.31v4.86l-.18-.28L4.87,156.65h12.27Z" style="fill: #7db330;"/>
    </g>
  </g>
</svg>