<?xml version="1.0" encoding="UTF-8"?>
<svg id="_Слой_2" data-name="Слой 2" xmlns="http://www.w3.org/2000/svg" xmlns:xlink="http://www.w3.org/1999/xlink" viewBox="0 0 351.68 37.71">
  <defs>
    <radialGradient id="_Безымянный_градиент" data-name="Безымянный градиент" cx="12497.18" cy="-2579.38" fx="12497.18" fy="-2579.38" r="1029.32" gradientTransform="translate(-222.63 117.72) scale(.04)" gradientUnits="userSpaceOnUse">
      <stop offset="0" stop-color="#4e97d2"/>
      <stop offset="1" stop-color="#2c306a"/>
    </radialGradient>
    <linearGradient id="_Безымянный_градиент_7" data-name="Безымянный градиент 7" x1="12194.61" y1="-2448.23" x2="12392.71" y2="-2098.78" gradientTransform="translate(-119.15 -46.25) scale(.03 -.03)" gradientUnits="userSpaceOnUse">
      <stop offset="0" stop-color="#4e97d2"/>
      <stop offset="1" stop-color="#2c306a"/>
    </linearGradient>
    <linearGradient id="_Безымянный_градиент_7-2" data-name="Безымянный градиент 7" x1="12457.12" y1="-1956.62" x2="12616.84" y2="-2340.1" xlink:href="#_Безымянный_градиент_7"/>
    <linearGradient id="_Безымянный_градиент_7-3" data-name="Безымянный градиент 7" x1="12614.38" y1="-2822.9" x2="12215.05" y2="-2785.16" xlink:href="#_Безымянный_градиент_7"/>
    <linearGradient id="_Безымянный_градиент_7-4" data-name="Безымянный градиент 7" x1="12337.11" y1="-2876.03" x2="12055.41" y2="-2385.89" xlink:href="#_Безымянный_градиент_7"/>
    <linearGradient id="_Безымянный_градиент_7-5" data-name="Безымянный градиент 7" x1="12684.23" y1="-2291.09" x2="12949.48" y2="-2599.17" xlink:href="#_Безымянный_градиент_7"/>
    <linearGradient id="_Безымянный_градиент_7-6" data-name="Безымянный градиент 7" x1="13042.98" y1="-2578.49" x2="12528.84" y2="-2833.92" xlink:href="#_Безымянный_градиент_7"/>
  </defs>
  <g id="_Слой_1-2" data-name="Слой 1">
    <g id="_1743069194544" data-name=" 1743069194544">
      <g>
        <line x1="206.57" y1="32" x2="192.92" y2="18.36" style="fill: none; stroke: #2b2a29; stroke-miterlimit: 10; stroke-width: 1.11px;"/>
        <line x1="192.92" y1="32" x2="206.57" y2="18.36" style="fill: none; stroke: #2b2a29; stroke-miterlimit: 10; stroke-width: 1.11px;"/>
      </g>
      <g>
        <path d="M237.25,22.66c-1.12-1.01-2.85-.92-3.86.2-1.01,1.12-.92,2.85.2,3.86,1.12,1.01,2.85.92,3.86-.2,1.01-1.12.92-2.85-.2-3.86h0Z" style="fill: url(#_Безымянный_градиент); fill-rule: evenodd;"/>
        <path d="M227.58,14.29c-1.79,1.35-3.22,3.15-4.12,5.23,1.08.27,4.32,1.32,5.81,5.33.45-.15,1.41-.71,2.08-2.87.9-2.9,2.6-5.69,4.8-6.63-2.2-2.18-5.1-2.69-8.57-1.06h0Z" style="fill: url(#_Безымянный_градиент_7); fill-rule: evenodd;"/>
        <path d="M245.44,16.39s0,0,0,0c-2.39-2.88-5.99-4.72-10.03-4.72-2.94,0-5.65.97-7.83,2.62,4.82-2.26,8.53-.4,10.81,4.32,3.62.65,6.08-1.15,7.05-2.22h0Z" style="fill: url(#_Безымянный_градиент_7-2); fill-rule: evenodd;"/>
        <path d="M230.32,36.67c2.06.87,4.34,1.21,6.59.95-.31-1.07-1.02-4.4,1.71-7.7-.35-.31-1.32-.87-3.53-.36-2.96.67-6.23.6-8.14-.84-.78,2.99.22,5.76,3.37,7.95h0Z" style="fill: url(#_Безымянный_градиент_7-3); fill-rule: evenodd;"/>
        <path d="M223.21,20.15s0,0,0,0c-1.3,3.51-1.09,7.55.93,11.04,1.47,2.55,3.67,4.41,6.18,5.47-4.37-3.04-4.61-7.19-1.66-11.52-1.25-3.46-4.04-4.69-5.45-5Z" style="fill: url(#_Безымянный_градиент_7-4); fill-rule: evenodd;"/>
        <path d="M248.34,23.11c-.27-2.22-1.12-4.36-2.47-6.19-.77.8-3.3,3.08-7.52,2.36-.1.46-.09,1.58,1.45,3.24,2.07,2.23,3.63,5.1,3.34,7.48,2.98-.82,4.88-3.07,5.2-6.89Z" style="fill: url(#_Безымянный_градиент_7-5); fill-rule: evenodd;"/>
        <path d="M237.59,37.52s0,0,0,0c3.69-.63,7.08-2.83,9.1-6.33,1.47-2.55,1.98-5.38,1.65-8.09-.45,5.3-3.92,7.59-9.14,7.2-2.37,2.81-2.04,5.84-1.6,7.22h0Z" style="fill: url(#_Безымянный_градиент_7-6); fill-rule: evenodd;"/>
        <path d="M256.79,24.67h1.61c.89,0,1.58-.17,2.08-.52.5-.35.75-.89.75-1.62,0-.77-.24-1.32-.73-1.64-.48-.32-1.18-.48-2.08-.48h-1.63v4.26ZM256.85,31.55h-2.94v-13.73h4.73c.86,0,1.64.09,2.33.27.69.18,1.28.46,1.77.83.49.37.87.85,1.13,1.43.26.58.39,1.26.39,2.05s-.13,1.46-.4,2.06c-.27.6-.66,1.11-1.17,1.52-.51.41-1.13.73-1.86.94-.73.22-1.56.32-2.47.32h-1.51v4.29h0Z" style="fill: #434242;"/>
        <path d="M273.26,29.2c.5,0,.95-.09,1.37-.27.42-.18.78-.46,1.08-.83.3-.37.53-.84.7-1.4.16-.56.24-1.23.24-2,0-1.56-.33-2.7-.98-3.42-.65-.73-1.52-1.09-2.59-1.09-.48,0-.94.09-1.36.27-.42.18-.79.46-1.11.83-.31.37-.56.84-.74,1.41-.18.57-.26,1.23-.26,1.99s.09,1.44.28,2c.19.56.45,1.03.77,1.4.33.37.71.65,1.16.83.44.18.92.27,1.43.27ZM273.16,31.79c-.99,0-1.9-.15-2.72-.46-.82-.31-1.52-.76-2.11-1.36-.59-.6-1.04-1.34-1.36-2.23-.32-.88-.48-1.9-.48-3.05s.17-2.17.5-3.05c.33-.88.79-1.62,1.38-2.23.59-.6,1.28-1.06,2.09-1.36.8-.31,1.68-.46,2.62-.46,1.06,0,2,.16,2.83.49.83.33,1.53.79,2.1,1.4.57.61,1,1.35,1.3,2.24.3.88.45,1.87.45,2.97,0,1.22-.17,2.27-.5,3.17-.33.9-.8,1.63-1.39,2.22-.59.58-1.29,1.01-2.1,1.29-.8.28-1.68.42-2.62.42h0Z" style="fill: #434242;"/>
        <path d="M292.95,31.01c-.18.09-.38.18-.6.27-.22.09-.47.18-.77.25-.29.08-.63.14-1.02.19-.39.05-.83.07-1.32.07-1.05,0-2-.15-2.85-.45-.86-.3-1.59-.74-2.2-1.32s-1.08-1.3-1.41-2.17c-.33-.86-.5-1.86-.5-2.98s.17-2.22.5-3.13c.33-.91.81-1.67,1.44-2.28.63-.61,1.39-1.08,2.28-1.39.9-.31,1.91-.47,3.03-.47.74,0,1.41.07,2.01.2.59.13,1.07.28,1.44.45l-.65,2.47c-.42-.14-.84-.25-1.27-.31-.43-.06-.8-.1-1.12-.1-.68,0-1.3.09-1.85.26-.56.17-1.03.44-1.43.8-.4.36-.71.82-.93,1.38-.22.56-.33,1.22-.33,1.98,0,1.45.41,2.55,1.23,3.28.82.73,1.92,1.1,3.3,1.1.31,0,.69-.04,1.14-.13.44-.08.88-.22,1.29-.4l.59,2.46h0Z" style="fill: #434242;"/>
        <path d="M299.65,25.96h3.67l-1.82-5.77-1.84,5.77h0ZM304.12,28.55h-5.27l-.98,3h-2.9l4.69-13.73h3.82l4.63,13.73h-3l-.98-3Z" style="fill: #434242;"/>
        <polygon points="314.79 31.55 311.85 31.55 311.85 20.53 307.95 20.53 307.95 17.83 318.67 17.83 318.67 20.53 314.79 20.53 314.79 31.55" style="fill: #434242;"/>
        <path d="M326.81,29.2c.5,0,.95-.09,1.37-.27.42-.18.78-.46,1.08-.83.3-.37.53-.84.7-1.4.16-.56.25-1.23.25-2,0-1.56-.33-2.7-.98-3.42-.65-.73-1.52-1.09-2.59-1.09-.48,0-.94.09-1.36.27-.42.18-.79.46-1.11.83-.31.37-.56.84-.74,1.41s-.26,1.23-.26,1.99.09,1.44.28,2c.19.56.45,1.03.78,1.4.33.37.71.65,1.16.83.44.18.92.27,1.43.27ZM326.71,31.79c-.99,0-1.9-.15-2.72-.46-.82-.31-1.52-.76-2.11-1.36-.59-.6-1.04-1.34-1.36-2.23-.32-.88-.48-1.9-.48-3.05s.17-2.17.5-3.05c.33-.88.79-1.62,1.38-2.23.59-.6,1.29-1.06,2.09-1.36.8-.31,1.68-.46,2.62-.46,1.06,0,2,.16,2.83.49.83.33,1.53.79,2.1,1.4.57.61,1,1.35,1.3,2.24.3.88.45,1.87.45,2.97,0,1.22-.17,2.27-.5,3.17-.33.9-.8,1.63-1.39,2.22s-1.29,1.01-2.1,1.29c-.8.28-1.68.42-2.62.42h0Z" style="fill: #434242;"/>
        <polygon points="351.68 31.55 348.72 31.55 347.97 22.43 345.15 31.55 342.34 31.55 339.56 22.47 338.81 31.55 335.85 31.55 337.23 17.83 340.74 17.83 343.83 28.18 346.89 17.83 350.29 17.83 351.68 31.52 351.68 31.55" style="fill: #434242;"/>
      </g>
      <g>
        <polygon points="103.23 17.24 113.32 17.24 113.32 18.95 109.26 18.95 109.26 33.3 107.27 33.3 107.27 18.95 103.23 18.95 103.23 17.24"/>
        <polygon points="18.23 17.24 20.22 17.24 20.22 24.2 27.3 17.24 30.05 17.24 22.29 24.76 30.97 33.34 28.18 33.34 20.84 25.98 20.22 26.53 20.22 33.34 18.23 33.34 18.23 17.24"/>
        <path d="M39.6,17.24c2.36,0,4.31.85,5.86,2.56,1.41,1.56,2.11,3.41,2.11,5.54s-.75,4.02-2.24,5.62c-1.48,1.6-3.4,2.4-5.73,2.4s-4.27-.8-5.76-2.4c-1.48-1.61-2.23-3.48-2.23-5.62s.7-3.96,2.11-5.52c1.55-1.72,3.51-2.58,5.88-2.58ZM39.6,19.17c-1.63,0-3.04.61-4.21,1.82-1.17,1.21-1.76,2.68-1.76,4.4,0,1.11.27,2.14.8,3.1s1.26,1.7,2.17,2.23c.91.52,1.91.77,3,.77s2.09-.26,3-.77c.91-.53,1.63-1.27,2.17-2.23.54-.96.8-1.99.8-3.1,0-1.72-.59-3.18-1.78-4.4-1.17-1.21-2.57-1.82-4.2-1.82Z"/>
        <path d="M64.71,19.81c-1.55-1.71-3.5-2.56-5.86-2.56s-4.33.86-5.88,2.58c-1.41,1.56-2.11,3.4-2.11,5.52s.74,4.02,2.23,5.62c1.49,1.6,3.41,2.4,5.76,2.4s4.25-.8,5.73-2.4c.49-.53.9-1.08,1.23-1.67l-1.71-.96s-.05.1-.08.15c-.54.96-1.26,1.7-2.17,2.23-.91.52-1.91.77-3,.77s-2.09-.26-3-.77c-.91-.53-1.63-1.27-2.17-2.23-.54-.96-.8-1.99-.8-3.1,0-1.72.59-3.18,1.76-4.4s2.58-1.82,4.21-1.82,3.02.61,4.2,1.82c.4.41.73.84.99,1.3l1.74-1.03c-.29-.51-.65-1-1.06-1.46h0Z" style="fill-rule: evenodd;"/>
        <path d="M99.62,19.8c-1.55-1.71-3.5-2.56-5.86-2.56s-4.33.86-5.88,2.58c-1.41,1.56-2.11,3.4-2.11,5.52s.74,4.02,2.23,5.62c1.49,1.6,3.41,2.4,5.76,2.4s4.25-.8,5.74-2.4c.49-.53.9-1.08,1.23-1.67l-1.71-.96s-.05.1-.08.15c-.53.96-1.26,1.7-2.17,2.23-.91.52-1.91.77-3,.77s-2.09-.26-3-.77c-.91-.53-1.63-1.27-2.17-2.23-.54-.96-.8-1.99-.8-3.1,0-1.72.59-3.18,1.76-4.4s2.58-1.82,4.21-1.82,3.02.61,4.2,1.82c.4.41.73.84.99,1.3l1.74-1.03c-.29-.51-.65-1-1.06-1.46h0Z" style="fill-rule: evenodd;"/>
        <rect x="69.1" y="17.24" width="1.93" height="16.1"/>
        <rect x="80.55" y="17.24" width="1.93" height="16.1"/>
        <rect x="66.51" y="24.29" width="18.57" height="1.97" transform="translate(10.26 70.98) rotate(-53.33)"/>
        <rect x="103.23" y="11.85" width="10.09" height="1.97" style="fill: #78be0a;"/>
        <rect x="103.23" y="7.5" width="10.09" height="1.97" style="fill: #78be0a;"/>
        <polygon points="139.38 17.24 141.5 17.24 135.58 33.23 133.5 33.23 139.38 17.24"/>
        <polygon points="141.5 17.24 139.38 17.24 144.62 33.23 146.71 33.23 141.5 17.24"/>
        <polygon points="149.87 17.24 151.99 17.24 146.73 33.25 144.64 33.25 149.87 17.24"/>
        <polygon points="151.99 17.24 149.87 17.24 155.82 33.26 157.91 33.26 151.99 17.24"/>
        <path d="M169.16,17.22c2.35,0,4.29.85,5.83,2.55,1.4,1.55,2.1,3.39,2.1,5.51s-.74,4-2.23,5.59c-1.48,1.59-3.38,2.38-5.71,2.38s-4.25-.79-5.73-2.38c-1.48-1.6-2.21-3.46-2.21-5.59s.7-3.94,2.1-5.5c1.54-1.71,3.49-2.57,5.85-2.57ZM169.16,19.14c-1.63,0-3.02.6-4.19,1.81-1.17,1.21-1.75,2.66-1.75,4.37,0,1.1.27,2.13.8,3.08.53.95,1.25,1.69,2.16,2.21.91.51,1.9.77,2.99.77s2.08-.26,2.99-.77c.91-.52,1.63-1.26,2.16-2.21.53-.95.8-1.98.8-3.08,0-1.71-.59-3.17-1.77-4.37-1.17-1.21-2.56-1.81-4.18-1.81Z"/>
        <rect x="175.09" y="17.24" width="2" height="16.1"/>
        <rect x="70.44" y="12.17" width="10.74" height="1.77" style="fill: #78be0a;"/>
        <path d="M82.52,13.95l-6.71-9.45-6.71,9.45h13.42ZM80.53,13.95l-4.71-6.64-4.71,6.64h9.43Z" style="fill: #78be0a; fill-rule: evenodd;"/>
        <path d="M1.1,19.8c1.55-1.71,3.5-2.56,5.86-2.56s4.33.86,5.88,2.58c1.41,1.56,2.11,3.4,2.11,5.52s-.74,4.02-2.23,5.62c-1.49,1.6-3.41,2.4-5.76,2.4s-4.25-.8-5.73-2.4c-.49-.53-.9-1.08-1.23-1.67l1.71-.96s.05.1.08.15c.54.96,1.26,1.7,2.17,2.23.91.52,1.91.77,3,.77s2.09-.26,3-.77c.91-.53,1.63-1.27,2.17-2.23.54-.96.8-1.99.8-3.1,0-1.72-.59-3.18-1.76-4.4-1.17-1.21-2.58-1.82-4.21-1.82s-3.02.61-4.2,1.82c-.4.41-.73.84-.99,1.3L.04,21.26c.29-.51.65-1,1.06-1.46h0Z" style="fill-rule: evenodd;"/>
        <rect x="7.73" y="24.44" width="5.63" height="1.72"/>
        <path d="M123.45,17.24c2.36,0,4.31.85,5.86,2.56,1.4,1.55,2.1,3.38,2.11,5.49h-2c-.02-1.68-.61-3.12-1.78-4.31-1.17-1.21-2.57-1.82-4.2-1.82s-3.04.61-4.21,1.82c-1.17,1.21-1.76,2.68-1.76,4.4,0,1.11.27,2.14.8,3.1.54.96,1.26,1.7,2.17,2.23.91.52,1.91.77,3,.77s2.09-.26,3-.77c.91-.53,1.63-1.27,2.17-2.23.05-.08.09-.17.13-.25l1.71.96c-.34.62-.77,1.21-1.29,1.77-1.48,1.6-3.4,2.4-5.74,2.4s-4.27-.8-5.76-2.4c-1.48-1.61-2.23-3.48-2.23-5.62s.7-3.96,2.11-5.52c1.55-1.72,3.51-2.58,5.88-2.58h0Z" style="fill-rule: evenodd;"/>
        <rect x="115.87" y="23.58" width="15.29" height="1.72"/>
        <polygon points="141.49 13.82 139.37 13.82 145.68 4.95 151.99 13.82 149.87 13.82 145.68 7.97 141.49 13.82" style="fill: #78be0a;"/>
        <polygon points="20.22 13.94 18.23 13.94 24.14 6.58 30.05 13.94 28.06 13.94 24.14 9.09 20.22 13.94" style="fill: #78be0a;"/>
        <polygon points="20.22 7.35 18.23 7.35 24.14 0 30.05 7.36 28.06 7.36 24.14 2.51 20.22 7.35" style="fill: #78be0a;"/>
      </g>
    </g>
  </g>
</svg>