<?xml version="1.0" encoding="UTF-8"?>
<svg id="_Слой_2" data-name="Слой 2" xmlns="http://www.w3.org/2000/svg" viewBox="0 0 74.83 113.34">
  <g id="_Слой_1-2" data-name="Слой 1">
    <g id="_1743069208608" data-name=" 1743069208608">
      <polygon points="1.25 83.4 23.44 103.45 20.42 106.79 0 88.33 0 84.78 1.25 83.4" style="fill: #7db330;"/>
      <polygon points="4.27 80.06 29.79 103.13 20.74 113.14 0 94.39 0 78.07 .93 77.04 4.27 80.06" style="fill: #7db330;"/>
      <polygon points="1.25 6.35 64.1 63.16 61.08 66.49 0 11.29 0 7.73 1.25 6.35" style="fill: #7db330;"/>
      <polygon points="4.27 3.02 70.45 62.84 61.4 72.84 0 17.35 0 1.03 .93 0 4.27 3.02" style="fill: #7db330;"/>
      <polygon points="1.25 42.9 68.47 103.66 65.45 106.99 0 47.83 0 44.28 1.25 42.9" style="fill: #7db330;"/>
      <polygon points="4.27 39.56 74.83 103.34 65.77 113.34 0 53.89 0 37.57 .93 36.54 4.27 39.56" style="fill: #7db330;"/>
    </g>
  </g>
</svg>